<svg version="1.2" xmlns="http://www.w3.org/2000/svg" viewBox="0 0 900 900" width="900" height="900">
	<title>1601</title>
	<style>
		.s0 { fill: #1b2845 } 
		.s1 { opacity: .85;fill: #5899e2;stroke: #5899e2;stroke-miterlimit:10;stroke-width: 16 } 
	</style>
	<g id="_Artboards_">
	</g>
	<g id="Layer 1">
		<path id="&lt;Path&gt;" class="s0" d="m900 900h-900v-900h900z"/>
	</g>
	<g id="Layer 2">
		<path id="&lt;Path&gt;" class="s1" d="m450.71-114.98l-565.69 565.69-1.41-1.42 565.68-565.68zm141.78 140.36l-567.1 567.1-1.42-1.42 567.1-567.1zm141.78 141.78l-567.1 567.1-1.42-1.42 567.1-567.1zm141.77 141.77l-567.1 567.1-1.41-1.41 567.1-567.1zm140.35 141.77l-565.68 565.68-1.42-1.41 565.69-565.69zm0-1.41l-1.41 1.41-565.69-565.68 1.41-1.41zm-140.35 141.77l-1.42 1.42-567.1-567.1 1.42-1.42zm-141.78 141.77l-1.42 1.42-567.1-567.1 1.42-1.42zm-141.77 141.78l-1.42 1.42-567.1-567.1 1.42-1.42zm-141.78 140.36l-1.41 1.42-565.69-565.69 1.41-1.41z"/>
	</g>
</svg>